G04 PROTEUS GERBER X2 FILE*
%TF.GenerationSoftware,Labcenter,Proteus,8.9-SP0-Build27865*%
%TF.CreationDate,2021-05-13T10:27:25+00:00*%
%TF.FileFunction,Soldermask,Bot*%
%TF.FilePolarity,Negative*%
%TF.Part,Single*%
%TF.SameCoordinates,{82f15a69-86a8-4522-b21f-b29042aab725}*%
%FSLAX45Y45*%
%MOMM*%
G01*
%AMPPAD013*
4,1,36,
-0.635000,0.762000,
0.635000,0.762000,
0.660970,0.759470,
0.684980,0.752200,
0.706580,0.740650,
0.725290,0.725290,
0.740650,0.706570,
0.752200,0.684980,
0.759470,0.660970,
0.762000,0.635000,
0.762000,-0.635000,
0.759470,-0.660970,
0.752200,-0.684980,
0.740650,-0.706570,
0.725290,-0.725290,
0.706580,-0.740650,
0.684980,-0.752200,
0.660970,-0.759470,
0.635000,-0.762000,
-0.635000,-0.762000,
-0.660970,-0.759470,
-0.684980,-0.752200,
-0.706580,-0.740650,
-0.725290,-0.725290,
-0.740650,-0.706570,
-0.752200,-0.684980,
-0.759470,-0.660970,
-0.762000,-0.635000,
-0.762000,0.635000,
-0.759470,0.660970,
-0.752200,0.684980,
-0.740650,0.706570,
-0.725290,0.725290,
-0.706580,0.740650,
-0.684980,0.752200,
-0.660970,0.759470,
-0.635000,0.762000,
0*%
%TA.AperFunction,Material*%
%ADD21PPAD013*%
%ADD22C,1.524000*%
%AMPPAD015*
4,1,8,
-0.509800,1.397000,
0.509800,1.397000,
0.889000,1.017800,
0.889000,-1.017800,
0.509800,-1.397000,
-0.509800,-1.397000,
-0.889000,-1.017800,
-0.889000,1.017800,
-0.509800,1.397000,
0*%
%TA.AperFunction,Material*%
%ADD23PPAD015*%
%TA.AperFunction,Material*%
%ADD24C,4.064000*%
%TA.AperFunction,Material*%
%ADD25C,1.651000*%
%AMPPAD018*
4,1,36,
1.016000,-1.143000,
-1.016000,-1.143000,
-1.041970,-1.140470,
-1.065980,-1.133200,
-1.087580,-1.121650,
-1.106290,-1.106290,
-1.121650,-1.087570,
-1.133200,-1.065980,
-1.140470,-1.041970,
-1.143000,-1.016000,
-1.143000,1.016000,
-1.140470,1.041970,
-1.133200,1.065980,
-1.121650,1.087570,
-1.106290,1.106290,
-1.087580,1.121650,
-1.065980,1.133200,
-1.041970,1.140470,
-1.016000,1.143000,
1.016000,1.143000,
1.041970,1.140470,
1.065980,1.133200,
1.087580,1.121650,
1.106290,1.106290,
1.121650,1.087570,
1.133200,1.065980,
1.140470,1.041970,
1.143000,1.016000,
1.143000,-1.016000,
1.140470,-1.041970,
1.133200,-1.065980,
1.121650,-1.087570,
1.106290,-1.106290,
1.087580,-1.121650,
1.065980,-1.133200,
1.041970,-1.140470,
1.016000,-1.143000,
0*%
%TA.AperFunction,Material*%
%ADD26PPAD018*%
%ADD27C,2.032000*%
%TA.AperFunction,Profile*%
%ADD17C,0.203200*%
%TD.AperFunction*%
D21*
X-7227000Y+7647000D03*
D22*
X-6973000Y+7647000D03*
X-6719000Y+7647000D03*
X-6465000Y+7647000D03*
X-6211000Y+7647000D03*
X-5957000Y+7647000D03*
X-5703000Y+7647000D03*
X-5449000Y+7647000D03*
X-5195000Y+7647000D03*
X-4941000Y+7647000D03*
X-4687000Y+7647000D03*
X-4433000Y+7647000D03*
X-4179000Y+7647000D03*
X-3925000Y+7647000D03*
X-3671000Y+7647000D03*
X-3417000Y+7647000D03*
X-3163000Y+7647000D03*
X-2909000Y+7647000D03*
X-2655000Y+7647000D03*
X-2401000Y+7647000D03*
X-2401000Y+9171000D03*
X-2655000Y+9171000D03*
X-2909000Y+9171000D03*
X-3163000Y+9171000D03*
X-3417000Y+9171000D03*
X-3671000Y+9171000D03*
X-3925000Y+9171000D03*
X-4179000Y+9171000D03*
X-4433000Y+9171000D03*
X-4687000Y+9171000D03*
X-4941000Y+9171000D03*
X-5195000Y+9171000D03*
X-5449000Y+9171000D03*
X-5703000Y+9171000D03*
X-5957000Y+9171000D03*
X-6211000Y+9171000D03*
X-6465000Y+9171000D03*
X-6719000Y+9171000D03*
X-6973000Y+9171000D03*
X-7227000Y+9171000D03*
D23*
X+782000Y+7372000D03*
X+1036000Y+7372000D03*
X+782000Y+5848000D03*
X+528000Y+7372000D03*
X+528000Y+5848000D03*
X+274000Y+5848000D03*
X+1036000Y+5848000D03*
X+20000Y+5848000D03*
X+20000Y+7372000D03*
X+274000Y+7372000D03*
D24*
X+341000Y+2098000D03*
X+849000Y+2098000D03*
D25*
X-8621000Y+7966000D03*
X-8621000Y+8166000D03*
X-8621000Y+8366000D03*
X-8621000Y+8566000D03*
X-8621000Y+8766000D03*
D26*
X-7608000Y+5376000D03*
X-7862000Y+5376000D03*
D27*
X-6943000Y+6475000D03*
X-8213000Y+6475000D03*
D26*
X-5858000Y+5364000D03*
X-6112000Y+5364000D03*
D27*
X-5263000Y+6474000D03*
X-6533000Y+6474000D03*
D26*
X-3993000Y+5376000D03*
X-4247000Y+5376000D03*
D27*
X-3353000Y+6472000D03*
X-4623000Y+6472000D03*
D26*
X-7593000Y+3114000D03*
X-7847000Y+3114000D03*
D27*
X-7055000Y+4142000D03*
X-8325000Y+4142000D03*
D26*
X-5848000Y+3108000D03*
X-6102000Y+3108000D03*
D27*
X-5276000Y+4133000D03*
X-6546000Y+4133000D03*
D26*
X-3975000Y+3107000D03*
X-4229000Y+3107000D03*
D27*
X-3376000Y+4124000D03*
X-4646000Y+4124000D03*
D26*
X-7592000Y+948000D03*
X-7846000Y+948000D03*
D27*
X-7026000Y+1780000D03*
X-8296000Y+1780000D03*
D26*
X-5824000Y+938000D03*
X-6078000Y+938000D03*
D27*
X-3464000Y+1788000D03*
X-4734000Y+1788000D03*
D26*
X-3978000Y+957000D03*
X-4232000Y+957000D03*
D27*
X-5340000Y+1788000D03*
X-6610000Y+1788000D03*
X+443000Y+9407000D03*
X+443000Y+8137000D03*
X+90000Y+9415000D03*
X+90000Y+8145000D03*
X+143000Y+3975000D03*
X+143000Y+5245000D03*
X+459000Y+3971000D03*
X+459000Y+5241000D03*
X+793000Y+3967000D03*
X+793000Y+5237000D03*
X+1141000Y+9410000D03*
X+1141000Y+8140000D03*
X+787000Y+9403000D03*
X+787000Y+8133000D03*
X+1112000Y+3967000D03*
X+1112000Y+5237000D03*
D25*
X-960000Y+9590000D03*
X-1160000Y+9590000D03*
X-1360000Y+9590000D03*
X-1560000Y+9590000D03*
D17*
X-9250000Y+250000D02*
X+2750000Y+250000D01*
X+2750000Y+10250000D01*
X-9250000Y+10250000D01*
X-9250000Y+250000D01*
M02*
