G04 PROTEUS GERBER X2 FILE*
%TF.GenerationSoftware,Labcenter,Proteus,8.9-SP0-Build27865*%
%TF.CreationDate,2021-05-13T10:27:25+00:00*%
%TF.FileFunction,Legend,Top*%
%TF.FilePolarity,Positive*%
%TF.Part,Single*%
%TF.SameCoordinates,{82f15a69-86a8-4522-b21f-b29042aab725}*%
%FSLAX45Y45*%
%MOMM*%
G01*
%TA.AperFunction,Profile*%
%ADD17C,0.203200*%
%TA.AperFunction,Material*%
%ADD70C,0.203200*%
%ADD71C,0.508000*%
%ADD20C,0.152400*%
%TD.AperFunction*%
D17*
X-9250000Y+250000D02*
X+2750000Y+250000D01*
X+2750000Y+10250000D01*
X-9250000Y+10250000D01*
X-9250000Y+250000D01*
D70*
X-7100000Y+8409000D02*
X-7105080Y+8460752D01*
X-7119685Y+8508695D01*
X-7142862Y+8551875D01*
X-7173660Y+8589340D01*
X-7211125Y+8620138D01*
X-7254305Y+8643315D01*
X-7302248Y+8657920D01*
X-7354000Y+8663000D01*
X-7100000Y+8409000D02*
X-7105080Y+8356518D01*
X-7119685Y+8308233D01*
X-7142862Y+8265009D01*
X-7173660Y+8227708D01*
X-7211125Y+8197193D01*
X-7254305Y+8174328D01*
X-7302248Y+8159976D01*
X-7354000Y+8155000D01*
X-7354000Y+8663000D02*
X-7354000Y+9044000D01*
X-2274000Y+9044000D02*
X-2274000Y+7774000D01*
X-7354000Y+7774000D02*
X-7354000Y+8155000D01*
X-7354000Y+9044000D02*
X-2274000Y+9044000D01*
X-7354000Y+7774000D02*
X-2274000Y+7774000D01*
X-7486080Y+8282000D02*
X-7409880Y+8282000D01*
X-7394640Y+8297875D01*
X-7394640Y+8361375D01*
X-7409880Y+8377250D01*
X-7486080Y+8377250D01*
X-7455600Y+8440750D02*
X-7486080Y+8472500D01*
X-7394640Y+8472500D01*
X-234000Y+5594000D02*
X+1290000Y+5594000D01*
X+1290000Y+7626000D01*
X-234000Y+7626000D01*
X-234000Y+5594000D01*
X+147000Y+7054500D02*
X+147000Y+6673500D01*
X+655000Y+7054500D02*
X+655000Y+6673500D01*
X+655000Y+6546500D02*
X+655000Y+6165500D01*
X+147000Y+6546500D02*
X+147000Y+6165500D01*
X+147000Y+6102000D02*
X+655000Y+6102000D01*
X+147000Y+6610000D02*
X+591500Y+6610000D01*
X+147000Y+7118000D02*
X+655000Y+7118000D01*
X+909000Y+6102000D02*
X+908783Y+6107247D01*
X+907018Y+6117742D01*
X+903326Y+6128237D01*
X+897298Y+6138732D01*
X+888076Y+6149112D01*
X+877581Y+6156800D01*
X+867086Y+6161718D01*
X+856591Y+6164524D01*
X+846096Y+6165497D01*
X+845500Y+6165500D01*
X+782000Y+6102000D02*
X+782217Y+6107247D01*
X+783982Y+6117742D01*
X+787674Y+6128237D01*
X+793702Y+6138732D01*
X+802924Y+6149112D01*
X+813419Y+6156800D01*
X+823914Y+6161718D01*
X+834409Y+6164524D01*
X+844904Y+6165497D01*
X+845500Y+6165500D01*
X+782000Y+6102000D02*
X+782217Y+6096753D01*
X+783982Y+6086258D01*
X+787674Y+6075763D01*
X+793702Y+6065268D01*
X+802924Y+6054888D01*
X+813419Y+6047200D01*
X+823914Y+6042282D01*
X+834409Y+6039476D01*
X+844904Y+6038503D01*
X+845500Y+6038500D01*
X+909000Y+6102000D02*
X+908783Y+6096753D01*
X+907018Y+6086258D01*
X+903326Y+6075763D01*
X+897298Y+6065268D01*
X+888076Y+6054888D01*
X+877581Y+6047200D01*
X+867086Y+6042282D01*
X+856591Y+6039476D01*
X+846096Y+6038503D01*
X+845500Y+6038500D01*
X+83500Y+7666640D02*
X+83500Y+7758080D01*
X+147000Y+7758080D01*
X+178750Y+7727600D01*
X+178750Y+7697120D01*
X+147000Y+7666640D01*
X+83500Y+7666640D01*
X+226375Y+7758080D02*
X+289875Y+7758080D01*
X+258125Y+7758080D02*
X+258125Y+7666640D01*
X+226375Y+7666640D02*
X+289875Y+7666640D01*
X+337500Y+7681880D02*
X+353375Y+7666640D01*
X+416875Y+7666640D01*
X+432750Y+7681880D01*
X+432750Y+7697120D01*
X+416875Y+7712360D01*
X+353375Y+7712360D01*
X+337500Y+7727600D01*
X+337500Y+7742840D01*
X+353375Y+7758080D01*
X+416875Y+7758080D01*
X+432750Y+7742840D01*
X+464500Y+7666640D02*
X+464500Y+7758080D01*
X+543875Y+7758080D01*
X+559750Y+7742840D01*
X+559750Y+7727600D01*
X+543875Y+7712360D01*
X+464500Y+7712360D01*
X+591500Y+7758080D02*
X+591500Y+7666640D01*
X+686750Y+7666640D01*
X+718500Y+7666640D02*
X+718500Y+7727600D01*
X+750250Y+7758080D01*
X+782000Y+7758080D01*
X+813750Y+7727600D01*
X+813750Y+7666640D01*
X+718500Y+7697120D02*
X+813750Y+7697120D01*
X+940750Y+7758080D02*
X+845500Y+7666640D01*
X+845500Y+7758080D02*
X+893125Y+7712360D01*
X+1230000Y+1971000D02*
X+1228119Y+2019845D01*
X+1212861Y+2117537D01*
X+1181155Y+2215229D01*
X+1130084Y+2312921D01*
X+1053220Y+2410613D01*
X+955721Y+2493595D01*
X+858029Y+2548963D01*
X+760337Y+2584098D01*
X+662645Y+2602387D01*
X+595000Y+2606000D01*
X-40000Y+1971000D02*
X-38119Y+2019845D01*
X-22861Y+2117537D01*
X+8845Y+2215229D01*
X+59916Y+2312921D01*
X+136780Y+2410613D01*
X+234279Y+2493595D01*
X+331971Y+2548963D01*
X+429663Y+2584098D01*
X+527355Y+2602387D01*
X+595000Y+2606000D01*
X-40000Y+1971000D02*
X-38119Y+1922155D01*
X-22861Y+1824463D01*
X+8845Y+1726771D01*
X+59916Y+1629079D01*
X+136780Y+1531387D01*
X+234279Y+1448405D01*
X+331971Y+1393037D01*
X+429663Y+1357902D01*
X+527355Y+1339613D01*
X+595000Y+1336000D01*
X+1230000Y+1971000D02*
X+1228119Y+1922155D01*
X+1212861Y+1824463D01*
X+1181155Y+1726771D01*
X+1130084Y+1629079D01*
X+1053220Y+1531387D01*
X+955721Y+1448405D01*
X+858029Y+1393037D01*
X+760337Y+1357902D01*
X+662645Y+1339613D01*
X+595000Y+1336000D01*
X+849000Y+1971000D02*
X+848173Y+1991483D01*
X+841455Y+2032450D01*
X+827437Y+2073417D01*
X+804659Y+2114384D01*
X+769859Y+2155229D01*
X+728892Y+2186845D01*
X+687925Y+2207392D01*
X+646958Y+2219629D01*
X+605991Y+2224762D01*
X+595000Y+2225000D01*
X+341000Y+1971000D02*
X+341827Y+1991483D01*
X+348545Y+2032450D01*
X+362563Y+2073417D01*
X+385341Y+2114384D01*
X+420141Y+2155229D01*
X+461108Y+2186845D01*
X+502075Y+2207392D01*
X+543042Y+2219629D01*
X+584009Y+2224762D01*
X+595000Y+2225000D01*
X+341000Y+1971000D02*
X+341827Y+1950517D01*
X+348545Y+1909550D01*
X+362563Y+1868583D01*
X+385341Y+1827616D01*
X+420141Y+1786771D01*
X+461108Y+1755155D01*
X+502075Y+1734608D01*
X+543042Y+1722371D01*
X+584009Y+1717238D01*
X+595000Y+1717000D01*
X+849000Y+1971000D02*
X+848173Y+1950517D01*
X+841455Y+1909550D01*
X+827437Y+1868583D01*
X+804659Y+1827616D01*
X+769859Y+1786771D01*
X+728892Y+1755155D01*
X+687925Y+1734608D01*
X+646958Y+1722371D01*
X+605991Y+1717238D01*
X+595000Y+1717000D01*
X+976000Y+1971000D02*
X+974798Y+2001237D01*
X+965043Y+2061713D01*
X+944718Y+2122189D01*
X+911795Y+2182665D01*
X+861674Y+2243114D01*
X+801198Y+2291380D01*
X+740722Y+2323031D01*
X+680246Y+2342341D01*
X+619770Y+2351194D01*
X+595000Y+2352000D01*
X+214000Y+1971000D02*
X+215202Y+2001237D01*
X+224957Y+2061713D01*
X+245282Y+2122189D01*
X+278205Y+2182665D01*
X+328326Y+2243114D01*
X+388802Y+2291380D01*
X+449278Y+2323031D01*
X+509754Y+2342341D01*
X+570230Y+2351194D01*
X+595000Y+2352000D01*
X+214000Y+1971000D02*
X+215202Y+1940763D01*
X+224957Y+1880287D01*
X+245282Y+1819811D01*
X+278205Y+1759335D01*
X+328326Y+1698886D01*
X+388802Y+1650620D01*
X+449278Y+1618969D01*
X+509754Y+1599659D01*
X+570230Y+1590806D01*
X+595000Y+1590000D01*
X+976000Y+1971000D02*
X+974798Y+1940763D01*
X+965043Y+1880287D01*
X+944718Y+1819811D01*
X+911795Y+1759335D01*
X+861674Y+1698886D01*
X+801198Y+1650620D01*
X+740722Y+1618969D01*
X+680246Y+1599659D01*
X+619770Y+1590806D01*
X+595000Y+1590000D01*
X+214000Y+2646640D02*
X+214000Y+2738080D01*
X+293375Y+2738080D01*
X+309250Y+2722840D01*
X+309250Y+2707600D01*
X+293375Y+2692360D01*
X+309250Y+2677120D01*
X+309250Y+2661880D01*
X+293375Y+2646640D01*
X+214000Y+2646640D01*
X+214000Y+2692360D02*
X+293375Y+2692360D01*
X+341000Y+2738080D02*
X+341000Y+2661880D01*
X+356875Y+2646640D01*
X+420375Y+2646640D01*
X+436250Y+2661880D01*
X+436250Y+2738080D01*
X+468000Y+2738080D02*
X+563250Y+2738080D01*
X+515625Y+2738080D02*
X+515625Y+2646640D01*
X+595000Y+2738080D02*
X+690250Y+2738080D01*
X+642625Y+2738080D02*
X+642625Y+2646640D01*
X+722000Y+2707600D02*
X+753750Y+2738080D01*
X+785500Y+2738080D01*
X+817250Y+2707600D01*
X+817250Y+2677120D01*
X+785500Y+2646640D01*
X+753750Y+2646640D01*
X+722000Y+2677120D01*
X+722000Y+2707600D01*
X+849000Y+2646640D02*
X+849000Y+2738080D01*
X+944250Y+2646640D01*
X+944250Y+2738080D01*
D71*
X-8773400Y+7966000D02*
X-8773531Y+7969158D01*
X-8774597Y+7975476D01*
X-8776828Y+7981794D01*
X-8780473Y+7988112D01*
X-8786048Y+7994351D01*
X-8792366Y+7998947D01*
X-8798684Y+8001880D01*
X-8805002Y+8003542D01*
X-8811320Y+8004100D01*
X-8811500Y+8004100D01*
X-8849600Y+7966000D02*
X-8849469Y+7969158D01*
X-8848403Y+7975476D01*
X-8846172Y+7981794D01*
X-8842527Y+7988112D01*
X-8836952Y+7994351D01*
X-8830634Y+7998947D01*
X-8824316Y+8001880D01*
X-8817998Y+8003542D01*
X-8811680Y+8004100D01*
X-8811500Y+8004100D01*
X-8849600Y+7966000D02*
X-8849469Y+7962842D01*
X-8848403Y+7956524D01*
X-8846172Y+7950206D01*
X-8842527Y+7943888D01*
X-8836952Y+7937649D01*
X-8830634Y+7933053D01*
X-8824316Y+7930120D01*
X-8817998Y+7928458D01*
X-8811680Y+7927900D01*
X-8811500Y+7927900D01*
X-8773400Y+7966000D02*
X-8773531Y+7962842D01*
X-8774597Y+7956524D01*
X-8776828Y+7950206D01*
X-8780473Y+7943888D01*
X-8786048Y+7937649D01*
X-8792366Y+7933053D01*
X-8798684Y+7930120D01*
X-8805002Y+7928458D01*
X-8811320Y+7927900D01*
X-8811500Y+7927900D01*
D20*
X-8740380Y+8835850D02*
X-8740380Y+7896150D01*
X-8696865Y+7896150D01*
X-8501620Y+7896150D02*
X-8501620Y+8835850D01*
X-8545135Y+8835850D01*
X-8696865Y+8835850D02*
X-8740380Y+8835850D01*
X-8545135Y+7896150D02*
X-8501620Y+7896150D01*
D70*
X-8372080Y+7731000D02*
X-8463520Y+7731000D01*
X-8463520Y+7810375D01*
X-8448280Y+7826250D01*
X-8433040Y+7826250D01*
X-8417800Y+7810375D01*
X-8417800Y+7731000D01*
X-8372080Y+7858000D02*
X-8463520Y+7858000D01*
X-8463520Y+7937375D01*
X-8448280Y+7953250D01*
X-8433040Y+7953250D01*
X-8417800Y+7937375D01*
X-8417800Y+7858000D01*
X-8417800Y+7937375D02*
X-8402560Y+7953250D01*
X-8372080Y+7953250D01*
X-8433040Y+7985000D02*
X-8463520Y+8016750D01*
X-8463520Y+8048500D01*
X-8433040Y+8080250D01*
X-8402560Y+8080250D01*
X-8372080Y+8048500D01*
X-8372080Y+8016750D01*
X-8402560Y+7985000D01*
X-8433040Y+7985000D01*
X-8402560Y+8175500D02*
X-8402560Y+8207250D01*
X-8372080Y+8207250D01*
X-8372080Y+8143750D01*
X-8402560Y+8112000D01*
X-8433040Y+8112000D01*
X-8463520Y+8143750D01*
X-8463520Y+8191375D01*
X-8448280Y+8207250D01*
X-8372080Y+8239000D02*
X-8463520Y+8239000D01*
X-8463520Y+8318375D01*
X-8448280Y+8334250D01*
X-8433040Y+8334250D01*
X-8417800Y+8318375D01*
X-8417800Y+8239000D01*
X-8417800Y+8318375D02*
X-8402560Y+8334250D01*
X-8372080Y+8334250D01*
X-8372080Y+8366000D02*
X-8433040Y+8366000D01*
X-8463520Y+8397750D01*
X-8463520Y+8429500D01*
X-8433040Y+8461250D01*
X-8372080Y+8461250D01*
X-8402560Y+8366000D02*
X-8402560Y+8461250D01*
X-8372080Y+8493000D02*
X-8463520Y+8493000D01*
X-8417800Y+8540625D01*
X-8463520Y+8588250D01*
X-8372080Y+8588250D01*
X-8372080Y+8620000D02*
X-8433040Y+8620000D01*
X-8463520Y+8651750D01*
X-8463520Y+8683500D01*
X-8433040Y+8715250D01*
X-8372080Y+8715250D01*
X-8402560Y+8620000D02*
X-8402560Y+8715250D01*
X-8372080Y+8747000D02*
X-8463520Y+8747000D01*
X-8463520Y+8826375D01*
X-8448280Y+8842250D01*
X-8433040Y+8842250D01*
X-8417800Y+8826375D01*
X-8417800Y+8747000D01*
X-8417800Y+8826375D02*
X-8402560Y+8842250D01*
X-8372080Y+8842250D01*
X-8372080Y+8969250D02*
X-8372080Y+8874000D01*
X-8463520Y+8874000D01*
X-8463520Y+8969250D01*
X-8417800Y+8874000D02*
X-8417800Y+8937500D01*
X-7481000Y+5376000D02*
X-7481827Y+5396483D01*
X-7488545Y+5437450D01*
X-7502563Y+5478417D01*
X-7525341Y+5519384D01*
X-7560141Y+5560229D01*
X-7601108Y+5591845D01*
X-7642075Y+5612392D01*
X-7683042Y+5624629D01*
X-7724009Y+5629762D01*
X-7735000Y+5630000D01*
X-7989000Y+5376000D02*
X-7988173Y+5396483D01*
X-7981455Y+5437450D01*
X-7967437Y+5478417D01*
X-7944659Y+5519384D01*
X-7909859Y+5560229D01*
X-7868892Y+5591845D01*
X-7827925Y+5612392D01*
X-7786958Y+5624629D01*
X-7745991Y+5629762D01*
X-7735000Y+5630000D01*
X-7989000Y+5376000D02*
X-7988173Y+5355517D01*
X-7981455Y+5314550D01*
X-7967437Y+5273583D01*
X-7944659Y+5232616D01*
X-7909859Y+5191771D01*
X-7868892Y+5160155D01*
X-7827925Y+5139608D01*
X-7786958Y+5127371D01*
X-7745991Y+5122238D01*
X-7735000Y+5122000D01*
X-7481000Y+5376000D02*
X-7481827Y+5355517D01*
X-7488545Y+5314550D01*
X-7502563Y+5273583D01*
X-7525341Y+5232616D01*
X-7560141Y+5191771D01*
X-7601108Y+5160155D01*
X-7642075Y+5139608D01*
X-7683042Y+5127371D01*
X-7724009Y+5122238D01*
X-7735000Y+5122000D01*
X-7417500Y+5122000D02*
X-7544500Y+5122000D01*
X-7481000Y+5058500D02*
X-7481000Y+5185500D01*
X-7830250Y+4926420D02*
X-7830250Y+5017860D01*
X-7766750Y+5017860D01*
X-7735000Y+4987380D01*
X-7735000Y+4956900D01*
X-7766750Y+4926420D01*
X-7830250Y+4926420D01*
X-7671500Y+4987380D02*
X-7639750Y+5017860D01*
X-7639750Y+4926420D01*
X-7070000Y+6475000D02*
X-7197000Y+6475000D01*
X-7959000Y+6411500D02*
X-7197000Y+6411500D01*
X-7197000Y+6538500D01*
X-7959000Y+6538500D01*
X-7959000Y+6411500D01*
X-7959000Y+6475000D02*
X-8086000Y+6475000D01*
X-7705000Y+6279420D02*
X-7705000Y+6370860D01*
X-7625625Y+6370860D01*
X-7609750Y+6355620D01*
X-7609750Y+6340380D01*
X-7625625Y+6325140D01*
X-7705000Y+6325140D01*
X-7625625Y+6325140D02*
X-7609750Y+6309900D01*
X-7609750Y+6279420D01*
X-7546250Y+6340380D02*
X-7514500Y+6370860D01*
X-7514500Y+6279420D01*
X-5731000Y+5364000D02*
X-5731827Y+5384483D01*
X-5738545Y+5425450D01*
X-5752563Y+5466417D01*
X-5775341Y+5507384D01*
X-5810141Y+5548229D01*
X-5851108Y+5579845D01*
X-5892075Y+5600392D01*
X-5933042Y+5612629D01*
X-5974009Y+5617762D01*
X-5985000Y+5618000D01*
X-6239000Y+5364000D02*
X-6238173Y+5384483D01*
X-6231455Y+5425450D01*
X-6217437Y+5466417D01*
X-6194659Y+5507384D01*
X-6159859Y+5548229D01*
X-6118892Y+5579845D01*
X-6077925Y+5600392D01*
X-6036958Y+5612629D01*
X-5995991Y+5617762D01*
X-5985000Y+5618000D01*
X-6239000Y+5364000D02*
X-6238173Y+5343517D01*
X-6231455Y+5302550D01*
X-6217437Y+5261583D01*
X-6194659Y+5220616D01*
X-6159859Y+5179771D01*
X-6118892Y+5148155D01*
X-6077925Y+5127608D01*
X-6036958Y+5115371D01*
X-5995991Y+5110238D01*
X-5985000Y+5110000D01*
X-5731000Y+5364000D02*
X-5731827Y+5343517D01*
X-5738545Y+5302550D01*
X-5752563Y+5261583D01*
X-5775341Y+5220616D01*
X-5810141Y+5179771D01*
X-5851108Y+5148155D01*
X-5892075Y+5127608D01*
X-5933042Y+5115371D01*
X-5974009Y+5110238D01*
X-5985000Y+5110000D01*
X-5667500Y+5110000D02*
X-5794500Y+5110000D01*
X-5731000Y+5046500D02*
X-5731000Y+5173500D01*
X-6080250Y+4914420D02*
X-6080250Y+5005860D01*
X-6016750Y+5005860D01*
X-5985000Y+4975380D01*
X-5985000Y+4944900D01*
X-6016750Y+4914420D01*
X-6080250Y+4914420D01*
X-5937375Y+4990620D02*
X-5921500Y+5005860D01*
X-5873875Y+5005860D01*
X-5858000Y+4990620D01*
X-5858000Y+4975380D01*
X-5873875Y+4960140D01*
X-5921500Y+4960140D01*
X-5937375Y+4944900D01*
X-5937375Y+4914420D01*
X-5858000Y+4914420D01*
X-5390000Y+6474000D02*
X-5517000Y+6474000D01*
X-6279000Y+6410500D02*
X-5517000Y+6410500D01*
X-5517000Y+6537500D01*
X-6279000Y+6537500D01*
X-6279000Y+6410500D01*
X-6279000Y+6474000D02*
X-6406000Y+6474000D01*
X-6025000Y+6278420D02*
X-6025000Y+6369860D01*
X-5945625Y+6369860D01*
X-5929750Y+6354620D01*
X-5929750Y+6339380D01*
X-5945625Y+6324140D01*
X-6025000Y+6324140D01*
X-5945625Y+6324140D02*
X-5929750Y+6308900D01*
X-5929750Y+6278420D01*
X-5882125Y+6354620D02*
X-5866250Y+6369860D01*
X-5818625Y+6369860D01*
X-5802750Y+6354620D01*
X-5802750Y+6339380D01*
X-5818625Y+6324140D01*
X-5866250Y+6324140D01*
X-5882125Y+6308900D01*
X-5882125Y+6278420D01*
X-5802750Y+6278420D01*
X-3866000Y+5376000D02*
X-3866827Y+5396483D01*
X-3873545Y+5437450D01*
X-3887563Y+5478417D01*
X-3910341Y+5519384D01*
X-3945141Y+5560229D01*
X-3986108Y+5591845D01*
X-4027075Y+5612392D01*
X-4068042Y+5624629D01*
X-4109009Y+5629762D01*
X-4120000Y+5630000D01*
X-4374000Y+5376000D02*
X-4373173Y+5396483D01*
X-4366455Y+5437450D01*
X-4352437Y+5478417D01*
X-4329659Y+5519384D01*
X-4294859Y+5560229D01*
X-4253892Y+5591845D01*
X-4212925Y+5612392D01*
X-4171958Y+5624629D01*
X-4130991Y+5629762D01*
X-4120000Y+5630000D01*
X-4374000Y+5376000D02*
X-4373173Y+5355517D01*
X-4366455Y+5314550D01*
X-4352437Y+5273583D01*
X-4329659Y+5232616D01*
X-4294859Y+5191771D01*
X-4253892Y+5160155D01*
X-4212925Y+5139608D01*
X-4171958Y+5127371D01*
X-4130991Y+5122238D01*
X-4120000Y+5122000D01*
X-3866000Y+5376000D02*
X-3866827Y+5355517D01*
X-3873545Y+5314550D01*
X-3887563Y+5273583D01*
X-3910341Y+5232616D01*
X-3945141Y+5191771D01*
X-3986108Y+5160155D01*
X-4027075Y+5139608D01*
X-4068042Y+5127371D01*
X-4109009Y+5122238D01*
X-4120000Y+5122000D01*
X-3802500Y+5122000D02*
X-3929500Y+5122000D01*
X-3866000Y+5058500D02*
X-3866000Y+5185500D01*
X-4215250Y+4926420D02*
X-4215250Y+5017860D01*
X-4151750Y+5017860D01*
X-4120000Y+4987380D01*
X-4120000Y+4956900D01*
X-4151750Y+4926420D01*
X-4215250Y+4926420D01*
X-4072375Y+5002620D02*
X-4056500Y+5017860D01*
X-4008875Y+5017860D01*
X-3993000Y+5002620D01*
X-3993000Y+4987380D01*
X-4008875Y+4972140D01*
X-3993000Y+4956900D01*
X-3993000Y+4941660D01*
X-4008875Y+4926420D01*
X-4056500Y+4926420D01*
X-4072375Y+4941660D01*
X-4040625Y+4972140D02*
X-4008875Y+4972140D01*
X-3480000Y+6472000D02*
X-3607000Y+6472000D01*
X-4369000Y+6408500D02*
X-3607000Y+6408500D01*
X-3607000Y+6535500D01*
X-4369000Y+6535500D01*
X-4369000Y+6408500D01*
X-4369000Y+6472000D02*
X-4496000Y+6472000D01*
X-4115000Y+6276420D02*
X-4115000Y+6367860D01*
X-4035625Y+6367860D01*
X-4019750Y+6352620D01*
X-4019750Y+6337380D01*
X-4035625Y+6322140D01*
X-4115000Y+6322140D01*
X-4035625Y+6322140D02*
X-4019750Y+6306900D01*
X-4019750Y+6276420D01*
X-3972125Y+6352620D02*
X-3956250Y+6367860D01*
X-3908625Y+6367860D01*
X-3892750Y+6352620D01*
X-3892750Y+6337380D01*
X-3908625Y+6322140D01*
X-3892750Y+6306900D01*
X-3892750Y+6291660D01*
X-3908625Y+6276420D01*
X-3956250Y+6276420D01*
X-3972125Y+6291660D01*
X-3940375Y+6322140D02*
X-3908625Y+6322140D01*
X-7466000Y+3114000D02*
X-7466827Y+3134483D01*
X-7473545Y+3175450D01*
X-7487563Y+3216417D01*
X-7510341Y+3257384D01*
X-7545141Y+3298229D01*
X-7586108Y+3329845D01*
X-7627075Y+3350392D01*
X-7668042Y+3362629D01*
X-7709009Y+3367762D01*
X-7720000Y+3368000D01*
X-7974000Y+3114000D02*
X-7973173Y+3134483D01*
X-7966455Y+3175450D01*
X-7952437Y+3216417D01*
X-7929659Y+3257384D01*
X-7894859Y+3298229D01*
X-7853892Y+3329845D01*
X-7812925Y+3350392D01*
X-7771958Y+3362629D01*
X-7730991Y+3367762D01*
X-7720000Y+3368000D01*
X-7974000Y+3114000D02*
X-7973173Y+3093517D01*
X-7966455Y+3052550D01*
X-7952437Y+3011583D01*
X-7929659Y+2970616D01*
X-7894859Y+2929771D01*
X-7853892Y+2898155D01*
X-7812925Y+2877608D01*
X-7771958Y+2865371D01*
X-7730991Y+2860238D01*
X-7720000Y+2860000D01*
X-7466000Y+3114000D02*
X-7466827Y+3093517D01*
X-7473545Y+3052550D01*
X-7487563Y+3011583D01*
X-7510341Y+2970616D01*
X-7545141Y+2929771D01*
X-7586108Y+2898155D01*
X-7627075Y+2877608D01*
X-7668042Y+2865371D01*
X-7709009Y+2860238D01*
X-7720000Y+2860000D01*
X-7402500Y+2860000D02*
X-7529500Y+2860000D01*
X-7466000Y+2796500D02*
X-7466000Y+2923500D01*
X-7815250Y+2664420D02*
X-7815250Y+2755860D01*
X-7751750Y+2755860D01*
X-7720000Y+2725380D01*
X-7720000Y+2694900D01*
X-7751750Y+2664420D01*
X-7815250Y+2664420D01*
X-7593000Y+2694900D02*
X-7688250Y+2694900D01*
X-7624750Y+2755860D01*
X-7624750Y+2664420D01*
X-7182000Y+4142000D02*
X-7309000Y+4142000D01*
X-8071000Y+4078500D02*
X-7309000Y+4078500D01*
X-7309000Y+4205500D01*
X-8071000Y+4205500D01*
X-8071000Y+4078500D01*
X-8071000Y+4142000D02*
X-8198000Y+4142000D01*
X-7817000Y+3946420D02*
X-7817000Y+4037860D01*
X-7737625Y+4037860D01*
X-7721750Y+4022620D01*
X-7721750Y+4007380D01*
X-7737625Y+3992140D01*
X-7817000Y+3992140D01*
X-7737625Y+3992140D02*
X-7721750Y+3976900D01*
X-7721750Y+3946420D01*
X-7594750Y+4022620D02*
X-7610625Y+4037860D01*
X-7658250Y+4037860D01*
X-7674125Y+4022620D01*
X-7674125Y+3961660D01*
X-7658250Y+3946420D01*
X-7610625Y+3946420D01*
X-7594750Y+3961660D01*
X-7594750Y+3976900D01*
X-7610625Y+3992140D01*
X-7674125Y+3992140D01*
X-5721000Y+3108000D02*
X-5721827Y+3128483D01*
X-5728545Y+3169450D01*
X-5742563Y+3210417D01*
X-5765341Y+3251384D01*
X-5800141Y+3292229D01*
X-5841108Y+3323845D01*
X-5882075Y+3344392D01*
X-5923042Y+3356629D01*
X-5964009Y+3361762D01*
X-5975000Y+3362000D01*
X-6229000Y+3108000D02*
X-6228173Y+3128483D01*
X-6221455Y+3169450D01*
X-6207437Y+3210417D01*
X-6184659Y+3251384D01*
X-6149859Y+3292229D01*
X-6108892Y+3323845D01*
X-6067925Y+3344392D01*
X-6026958Y+3356629D01*
X-5985991Y+3361762D01*
X-5975000Y+3362000D01*
X-6229000Y+3108000D02*
X-6228173Y+3087517D01*
X-6221455Y+3046550D01*
X-6207437Y+3005583D01*
X-6184659Y+2964616D01*
X-6149859Y+2923771D01*
X-6108892Y+2892155D01*
X-6067925Y+2871608D01*
X-6026958Y+2859371D01*
X-5985991Y+2854238D01*
X-5975000Y+2854000D01*
X-5721000Y+3108000D02*
X-5721827Y+3087517D01*
X-5728545Y+3046550D01*
X-5742563Y+3005583D01*
X-5765341Y+2964616D01*
X-5800141Y+2923771D01*
X-5841108Y+2892155D01*
X-5882075Y+2871608D01*
X-5923042Y+2859371D01*
X-5964009Y+2854238D01*
X-5975000Y+2854000D01*
X-5657500Y+2854000D02*
X-5784500Y+2854000D01*
X-5721000Y+2790500D02*
X-5721000Y+2917500D01*
X-6070250Y+2658420D02*
X-6070250Y+2749860D01*
X-6006750Y+2749860D01*
X-5975000Y+2719380D01*
X-5975000Y+2688900D01*
X-6006750Y+2658420D01*
X-6070250Y+2658420D01*
X-5848000Y+2749860D02*
X-5927375Y+2749860D01*
X-5927375Y+2719380D01*
X-5863875Y+2719380D01*
X-5848000Y+2704140D01*
X-5848000Y+2673660D01*
X-5863875Y+2658420D01*
X-5911500Y+2658420D01*
X-5927375Y+2673660D01*
X-5403000Y+4133000D02*
X-5530000Y+4133000D01*
X-6292000Y+4069500D02*
X-5530000Y+4069500D01*
X-5530000Y+4196500D01*
X-6292000Y+4196500D01*
X-6292000Y+4069500D01*
X-6292000Y+4133000D02*
X-6419000Y+4133000D01*
X-6038000Y+3937420D02*
X-6038000Y+4028860D01*
X-5958625Y+4028860D01*
X-5942750Y+4013620D01*
X-5942750Y+3998380D01*
X-5958625Y+3983140D01*
X-6038000Y+3983140D01*
X-5958625Y+3983140D02*
X-5942750Y+3967900D01*
X-5942750Y+3937420D01*
X-5815750Y+4028860D02*
X-5895125Y+4028860D01*
X-5895125Y+3998380D01*
X-5831625Y+3998380D01*
X-5815750Y+3983140D01*
X-5815750Y+3952660D01*
X-5831625Y+3937420D01*
X-5879250Y+3937420D01*
X-5895125Y+3952660D01*
X-3848000Y+3107000D02*
X-3848827Y+3127483D01*
X-3855545Y+3168450D01*
X-3869563Y+3209417D01*
X-3892341Y+3250384D01*
X-3927141Y+3291229D01*
X-3968108Y+3322845D01*
X-4009075Y+3343392D01*
X-4050042Y+3355629D01*
X-4091009Y+3360762D01*
X-4102000Y+3361000D01*
X-4356000Y+3107000D02*
X-4355173Y+3127483D01*
X-4348455Y+3168450D01*
X-4334437Y+3209417D01*
X-4311659Y+3250384D01*
X-4276859Y+3291229D01*
X-4235892Y+3322845D01*
X-4194925Y+3343392D01*
X-4153958Y+3355629D01*
X-4112991Y+3360762D01*
X-4102000Y+3361000D01*
X-4356000Y+3107000D02*
X-4355173Y+3086517D01*
X-4348455Y+3045550D01*
X-4334437Y+3004583D01*
X-4311659Y+2963616D01*
X-4276859Y+2922771D01*
X-4235892Y+2891155D01*
X-4194925Y+2870608D01*
X-4153958Y+2858371D01*
X-4112991Y+2853238D01*
X-4102000Y+2853000D01*
X-3848000Y+3107000D02*
X-3848827Y+3086517D01*
X-3855545Y+3045550D01*
X-3869563Y+3004583D01*
X-3892341Y+2963616D01*
X-3927141Y+2922771D01*
X-3968108Y+2891155D01*
X-4009075Y+2870608D01*
X-4050042Y+2858371D01*
X-4091009Y+2853238D01*
X-4102000Y+2853000D01*
X-3784500Y+2853000D02*
X-3911500Y+2853000D01*
X-3848000Y+2789500D02*
X-3848000Y+2916500D01*
X-4197250Y+2657420D02*
X-4197250Y+2748860D01*
X-4133750Y+2748860D01*
X-4102000Y+2718380D01*
X-4102000Y+2687900D01*
X-4133750Y+2657420D01*
X-4197250Y+2657420D01*
X-3975000Y+2733620D02*
X-3990875Y+2748860D01*
X-4038500Y+2748860D01*
X-4054375Y+2733620D01*
X-4054375Y+2672660D01*
X-4038500Y+2657420D01*
X-3990875Y+2657420D01*
X-3975000Y+2672660D01*
X-3975000Y+2687900D01*
X-3990875Y+2703140D01*
X-4054375Y+2703140D01*
X-3503000Y+4124000D02*
X-3630000Y+4124000D01*
X-4392000Y+4060500D02*
X-3630000Y+4060500D01*
X-3630000Y+4187500D01*
X-4392000Y+4187500D01*
X-4392000Y+4060500D01*
X-4392000Y+4124000D02*
X-4519000Y+4124000D01*
X-4138000Y+3928420D02*
X-4138000Y+4019860D01*
X-4058625Y+4019860D01*
X-4042750Y+4004620D01*
X-4042750Y+3989380D01*
X-4058625Y+3974140D01*
X-4138000Y+3974140D01*
X-4058625Y+3974140D02*
X-4042750Y+3958900D01*
X-4042750Y+3928420D01*
X-3915750Y+3958900D02*
X-4011000Y+3958900D01*
X-3947500Y+4019860D01*
X-3947500Y+3928420D01*
X-7465000Y+948000D02*
X-7465827Y+968483D01*
X-7472545Y+1009450D01*
X-7486563Y+1050417D01*
X-7509341Y+1091384D01*
X-7544141Y+1132229D01*
X-7585108Y+1163845D01*
X-7626075Y+1184392D01*
X-7667042Y+1196629D01*
X-7708009Y+1201762D01*
X-7719000Y+1202000D01*
X-7973000Y+948000D02*
X-7972173Y+968483D01*
X-7965455Y+1009450D01*
X-7951437Y+1050417D01*
X-7928659Y+1091384D01*
X-7893859Y+1132229D01*
X-7852892Y+1163845D01*
X-7811925Y+1184392D01*
X-7770958Y+1196629D01*
X-7729991Y+1201762D01*
X-7719000Y+1202000D01*
X-7973000Y+948000D02*
X-7972173Y+927517D01*
X-7965455Y+886550D01*
X-7951437Y+845583D01*
X-7928659Y+804616D01*
X-7893859Y+763771D01*
X-7852892Y+732155D01*
X-7811925Y+711608D01*
X-7770958Y+699371D01*
X-7729991Y+694238D01*
X-7719000Y+694000D01*
X-7465000Y+948000D02*
X-7465827Y+927517D01*
X-7472545Y+886550D01*
X-7486563Y+845583D01*
X-7509341Y+804616D01*
X-7544141Y+763771D01*
X-7585108Y+732155D01*
X-7626075Y+711608D01*
X-7667042Y+699371D01*
X-7708009Y+694238D01*
X-7719000Y+694000D01*
X-7401500Y+694000D02*
X-7528500Y+694000D01*
X-7465000Y+630500D02*
X-7465000Y+757500D01*
X-7814250Y+498420D02*
X-7814250Y+589860D01*
X-7750750Y+589860D01*
X-7719000Y+559380D01*
X-7719000Y+528900D01*
X-7750750Y+498420D01*
X-7814250Y+498420D01*
X-7671375Y+589860D02*
X-7592000Y+589860D01*
X-7592000Y+574620D01*
X-7671375Y+498420D01*
X-7153000Y+1780000D02*
X-7280000Y+1780000D01*
X-8042000Y+1716500D02*
X-7280000Y+1716500D01*
X-7280000Y+1843500D01*
X-8042000Y+1843500D01*
X-8042000Y+1716500D01*
X-8042000Y+1780000D02*
X-8169000Y+1780000D01*
X-7788000Y+1584420D02*
X-7788000Y+1675860D01*
X-7708625Y+1675860D01*
X-7692750Y+1660620D01*
X-7692750Y+1645380D01*
X-7708625Y+1630140D01*
X-7788000Y+1630140D01*
X-7708625Y+1630140D02*
X-7692750Y+1614900D01*
X-7692750Y+1584420D01*
X-7645125Y+1675860D02*
X-7565750Y+1675860D01*
X-7565750Y+1660620D01*
X-7645125Y+1584420D01*
X-5697000Y+938000D02*
X-5697827Y+958483D01*
X-5704545Y+999450D01*
X-5718563Y+1040417D01*
X-5741341Y+1081384D01*
X-5776141Y+1122229D01*
X-5817108Y+1153845D01*
X-5858075Y+1174392D01*
X-5899042Y+1186629D01*
X-5940009Y+1191762D01*
X-5951000Y+1192000D01*
X-6205000Y+938000D02*
X-6204173Y+958483D01*
X-6197455Y+999450D01*
X-6183437Y+1040417D01*
X-6160659Y+1081384D01*
X-6125859Y+1122229D01*
X-6084892Y+1153845D01*
X-6043925Y+1174392D01*
X-6002958Y+1186629D01*
X-5961991Y+1191762D01*
X-5951000Y+1192000D01*
X-6205000Y+938000D02*
X-6204173Y+917517D01*
X-6197455Y+876550D01*
X-6183437Y+835583D01*
X-6160659Y+794616D01*
X-6125859Y+753771D01*
X-6084892Y+722155D01*
X-6043925Y+701608D01*
X-6002958Y+689371D01*
X-5961991Y+684238D01*
X-5951000Y+684000D01*
X-5697000Y+938000D02*
X-5697827Y+917517D01*
X-5704545Y+876550D01*
X-5718563Y+835583D01*
X-5741341Y+794616D01*
X-5776141Y+753771D01*
X-5817108Y+722155D01*
X-5858075Y+701608D01*
X-5899042Y+689371D01*
X-5940009Y+684238D01*
X-5951000Y+684000D01*
X-5633500Y+684000D02*
X-5760500Y+684000D01*
X-5697000Y+620500D02*
X-5697000Y+747500D01*
X-6046250Y+488420D02*
X-6046250Y+579860D01*
X-5982750Y+579860D01*
X-5951000Y+549380D01*
X-5951000Y+518900D01*
X-5982750Y+488420D01*
X-6046250Y+488420D01*
X-5887500Y+534140D02*
X-5903375Y+549380D01*
X-5903375Y+564620D01*
X-5887500Y+579860D01*
X-5839875Y+579860D01*
X-5824000Y+564620D01*
X-5824000Y+549380D01*
X-5839875Y+534140D01*
X-5887500Y+534140D01*
X-5903375Y+518900D01*
X-5903375Y+503660D01*
X-5887500Y+488420D01*
X-5839875Y+488420D01*
X-5824000Y+503660D01*
X-5824000Y+518900D01*
X-5839875Y+534140D01*
X-3591000Y+1788000D02*
X-3718000Y+1788000D01*
X-4480000Y+1724500D02*
X-3718000Y+1724500D01*
X-3718000Y+1851500D01*
X-4480000Y+1851500D01*
X-4480000Y+1724500D01*
X-4480000Y+1788000D02*
X-4607000Y+1788000D01*
X-4226000Y+1592420D02*
X-4226000Y+1683860D01*
X-4146625Y+1683860D01*
X-4130750Y+1668620D01*
X-4130750Y+1653380D01*
X-4146625Y+1638140D01*
X-4226000Y+1638140D01*
X-4146625Y+1638140D02*
X-4130750Y+1622900D01*
X-4130750Y+1592420D01*
X-4067250Y+1638140D02*
X-4083125Y+1653380D01*
X-4083125Y+1668620D01*
X-4067250Y+1683860D01*
X-4019625Y+1683860D01*
X-4003750Y+1668620D01*
X-4003750Y+1653380D01*
X-4019625Y+1638140D01*
X-4067250Y+1638140D01*
X-4083125Y+1622900D01*
X-4083125Y+1607660D01*
X-4067250Y+1592420D01*
X-4019625Y+1592420D01*
X-4003750Y+1607660D01*
X-4003750Y+1622900D01*
X-4019625Y+1638140D01*
X-3851000Y+957000D02*
X-3851827Y+977483D01*
X-3858545Y+1018450D01*
X-3872563Y+1059417D01*
X-3895341Y+1100384D01*
X-3930141Y+1141229D01*
X-3971108Y+1172845D01*
X-4012075Y+1193392D01*
X-4053042Y+1205629D01*
X-4094009Y+1210762D01*
X-4105000Y+1211000D01*
X-4359000Y+957000D02*
X-4358173Y+977483D01*
X-4351455Y+1018450D01*
X-4337437Y+1059417D01*
X-4314659Y+1100384D01*
X-4279859Y+1141229D01*
X-4238892Y+1172845D01*
X-4197925Y+1193392D01*
X-4156958Y+1205629D01*
X-4115991Y+1210762D01*
X-4105000Y+1211000D01*
X-4359000Y+957000D02*
X-4358173Y+936517D01*
X-4351455Y+895550D01*
X-4337437Y+854583D01*
X-4314659Y+813616D01*
X-4279859Y+772771D01*
X-4238892Y+741155D01*
X-4197925Y+720608D01*
X-4156958Y+708371D01*
X-4115991Y+703238D01*
X-4105000Y+703000D01*
X-3851000Y+957000D02*
X-3851827Y+936517D01*
X-3858545Y+895550D01*
X-3872563Y+854583D01*
X-3895341Y+813616D01*
X-3930141Y+772771D01*
X-3971108Y+741155D01*
X-4012075Y+720608D01*
X-4053042Y+708371D01*
X-4094009Y+703238D01*
X-4105000Y+703000D01*
X-3787500Y+703000D02*
X-3914500Y+703000D01*
X-3851000Y+639500D02*
X-3851000Y+766500D01*
X-4200250Y+507420D02*
X-4200250Y+598860D01*
X-4136750Y+598860D01*
X-4105000Y+568380D01*
X-4105000Y+537900D01*
X-4136750Y+507420D01*
X-4200250Y+507420D01*
X-3978000Y+568380D02*
X-3993875Y+553140D01*
X-4041500Y+553140D01*
X-4057375Y+568380D01*
X-4057375Y+583620D01*
X-4041500Y+598860D01*
X-3993875Y+598860D01*
X-3978000Y+583620D01*
X-3978000Y+522660D01*
X-3993875Y+507420D01*
X-4041500Y+507420D01*
X-5467000Y+1788000D02*
X-5594000Y+1788000D01*
X-6356000Y+1724500D02*
X-5594000Y+1724500D01*
X-5594000Y+1851500D01*
X-6356000Y+1851500D01*
X-6356000Y+1724500D01*
X-6356000Y+1788000D02*
X-6483000Y+1788000D01*
X-6102000Y+1592420D02*
X-6102000Y+1683860D01*
X-6022625Y+1683860D01*
X-6006750Y+1668620D01*
X-6006750Y+1653380D01*
X-6022625Y+1638140D01*
X-6102000Y+1638140D01*
X-6022625Y+1638140D02*
X-6006750Y+1622900D01*
X-6006750Y+1592420D01*
X-5879750Y+1653380D02*
X-5895625Y+1638140D01*
X-5943250Y+1638140D01*
X-5959125Y+1653380D01*
X-5959125Y+1668620D01*
X-5943250Y+1683860D01*
X-5895625Y+1683860D01*
X-5879750Y+1668620D01*
X-5879750Y+1607660D01*
X-5895625Y+1592420D01*
X-5943250Y+1592420D01*
X+443000Y+9280000D02*
X+443000Y+9153000D01*
X+379500Y+8391000D02*
X+506500Y+8391000D01*
X+506500Y+9153000D01*
X+379500Y+9153000D01*
X+379500Y+8391000D01*
X+443000Y+8391000D02*
X+443000Y+8264000D01*
X+638580Y+8581500D02*
X+547140Y+8581500D01*
X+547140Y+8660875D01*
X+562380Y+8676750D01*
X+577620Y+8676750D01*
X+592860Y+8660875D01*
X+592860Y+8581500D01*
X+592860Y+8660875D02*
X+608100Y+8676750D01*
X+638580Y+8676750D01*
X+577620Y+8740250D02*
X+547140Y+8772000D01*
X+638580Y+8772000D01*
X+623340Y+8835500D02*
X+562380Y+8835500D01*
X+547140Y+8851375D01*
X+547140Y+8914875D01*
X+562380Y+8930750D01*
X+623340Y+8930750D01*
X+638580Y+8914875D01*
X+638580Y+8851375D01*
X+623340Y+8835500D01*
X+638580Y+8835500D02*
X+547140Y+8930750D01*
X+90000Y+9288000D02*
X+90000Y+9161000D01*
X+26500Y+8399000D02*
X+153500Y+8399000D01*
X+153500Y+9161000D01*
X+26500Y+9161000D01*
X+26500Y+8399000D01*
X+90000Y+8399000D02*
X+90000Y+8272000D01*
X+285580Y+8589500D02*
X+194140Y+8589500D01*
X+194140Y+8668875D01*
X+209380Y+8684750D01*
X+224620Y+8684750D01*
X+239860Y+8668875D01*
X+239860Y+8589500D01*
X+239860Y+8668875D02*
X+255100Y+8684750D01*
X+285580Y+8684750D01*
X+224620Y+8748250D02*
X+194140Y+8780000D01*
X+285580Y+8780000D01*
X+224620Y+8875250D02*
X+194140Y+8907000D01*
X+285580Y+8907000D01*
X+143000Y+4102000D02*
X+143000Y+4229000D01*
X+79500Y+4229000D02*
X+206500Y+4229000D01*
X+206500Y+4991000D01*
X+79500Y+4991000D01*
X+79500Y+4229000D01*
X+143000Y+4991000D02*
X+143000Y+5118000D01*
X+38860Y+4419500D02*
X-52580Y+4419500D01*
X-52580Y+4498875D01*
X-37340Y+4514750D01*
X-22100Y+4514750D01*
X-6860Y+4498875D01*
X-6860Y+4419500D01*
X-6860Y+4498875D02*
X+8380Y+4514750D01*
X+38860Y+4514750D01*
X-22100Y+4578250D02*
X-52580Y+4610000D01*
X+38860Y+4610000D01*
X-37340Y+4689375D02*
X-52580Y+4705250D01*
X-52580Y+4752875D01*
X-37340Y+4768750D01*
X-22100Y+4768750D01*
X-6860Y+4752875D01*
X-6860Y+4705250D01*
X+8380Y+4689375D01*
X+38860Y+4689375D01*
X+38860Y+4768750D01*
X+459000Y+4098000D02*
X+459000Y+4225000D01*
X+395500Y+4225000D02*
X+522500Y+4225000D01*
X+522500Y+4987000D01*
X+395500Y+4987000D01*
X+395500Y+4225000D01*
X+459000Y+4987000D02*
X+459000Y+5114000D01*
X+354860Y+4415500D02*
X+263420Y+4415500D01*
X+263420Y+4494875D01*
X+278660Y+4510750D01*
X+293900Y+4510750D01*
X+309140Y+4494875D01*
X+309140Y+4415500D01*
X+309140Y+4494875D02*
X+324380Y+4510750D01*
X+354860Y+4510750D01*
X+293900Y+4574250D02*
X+263420Y+4606000D01*
X+354860Y+4606000D01*
X+278660Y+4685375D02*
X+263420Y+4701250D01*
X+263420Y+4748875D01*
X+278660Y+4764750D01*
X+293900Y+4764750D01*
X+309140Y+4748875D01*
X+324380Y+4764750D01*
X+339620Y+4764750D01*
X+354860Y+4748875D01*
X+354860Y+4701250D01*
X+339620Y+4685375D01*
X+309140Y+4717125D02*
X+309140Y+4748875D01*
X+793000Y+4094000D02*
X+793000Y+4221000D01*
X+729500Y+4221000D02*
X+856500Y+4221000D01*
X+856500Y+4983000D01*
X+729500Y+4983000D01*
X+729500Y+4221000D01*
X+793000Y+4983000D02*
X+793000Y+5110000D01*
X+688860Y+4411500D02*
X+597420Y+4411500D01*
X+597420Y+4490875D01*
X+612660Y+4506750D01*
X+627900Y+4506750D01*
X+643140Y+4490875D01*
X+643140Y+4411500D01*
X+643140Y+4490875D02*
X+658380Y+4506750D01*
X+688860Y+4506750D01*
X+627900Y+4570250D02*
X+597420Y+4602000D01*
X+688860Y+4602000D01*
X+658380Y+4760750D02*
X+658380Y+4665500D01*
X+597420Y+4729000D01*
X+688860Y+4729000D01*
X+1141000Y+9283000D02*
X+1141000Y+9156000D01*
X+1077500Y+8394000D02*
X+1204500Y+8394000D01*
X+1204500Y+9156000D01*
X+1077500Y+9156000D01*
X+1077500Y+8394000D01*
X+1141000Y+8394000D02*
X+1141000Y+8267000D01*
X+1336580Y+8584500D02*
X+1245140Y+8584500D01*
X+1245140Y+8663875D01*
X+1260380Y+8679750D01*
X+1275620Y+8679750D01*
X+1290860Y+8663875D01*
X+1290860Y+8584500D01*
X+1290860Y+8663875D02*
X+1306100Y+8679750D01*
X+1336580Y+8679750D01*
X+1275620Y+8743250D02*
X+1245140Y+8775000D01*
X+1336580Y+8775000D01*
X+1245140Y+8933750D02*
X+1245140Y+8854375D01*
X+1275620Y+8854375D01*
X+1275620Y+8917875D01*
X+1290860Y+8933750D01*
X+1321340Y+8933750D01*
X+1336580Y+8917875D01*
X+1336580Y+8870250D01*
X+1321340Y+8854375D01*
X+787000Y+9276000D02*
X+787000Y+9149000D01*
X+723500Y+8387000D02*
X+850500Y+8387000D01*
X+850500Y+9149000D01*
X+723500Y+9149000D01*
X+723500Y+8387000D01*
X+787000Y+8387000D02*
X+787000Y+8260000D01*
X+982580Y+8577500D02*
X+891140Y+8577500D01*
X+891140Y+8656875D01*
X+906380Y+8672750D01*
X+921620Y+8672750D01*
X+936860Y+8656875D01*
X+936860Y+8577500D01*
X+936860Y+8656875D02*
X+952100Y+8672750D01*
X+982580Y+8672750D01*
X+921620Y+8736250D02*
X+891140Y+8768000D01*
X+982580Y+8768000D01*
X+906380Y+8926750D02*
X+891140Y+8910875D01*
X+891140Y+8863250D01*
X+906380Y+8847375D01*
X+967340Y+8847375D01*
X+982580Y+8863250D01*
X+982580Y+8910875D01*
X+967340Y+8926750D01*
X+952100Y+8926750D01*
X+936860Y+8910875D01*
X+936860Y+8847375D01*
X+1112000Y+4094000D02*
X+1112000Y+4221000D01*
X+1048500Y+4221000D02*
X+1175500Y+4221000D01*
X+1175500Y+4983000D01*
X+1048500Y+4983000D01*
X+1048500Y+4221000D01*
X+1112000Y+4983000D02*
X+1112000Y+5110000D01*
X+1007860Y+4411500D02*
X+916420Y+4411500D01*
X+916420Y+4490875D01*
X+931660Y+4506750D01*
X+946900Y+4506750D01*
X+962140Y+4490875D01*
X+962140Y+4411500D01*
X+962140Y+4490875D02*
X+977380Y+4506750D01*
X+1007860Y+4506750D01*
X+946900Y+4570250D02*
X+916420Y+4602000D01*
X+1007860Y+4602000D01*
X+916420Y+4681375D02*
X+916420Y+4760750D01*
X+931660Y+4760750D01*
X+1007860Y+4681375D01*
D71*
X-921900Y+9399500D02*
X-922031Y+9402658D01*
X-923097Y+9408976D01*
X-925328Y+9415294D01*
X-928973Y+9421612D01*
X-934548Y+9427851D01*
X-940866Y+9432447D01*
X-947184Y+9435380D01*
X-953502Y+9437042D01*
X-959820Y+9437600D01*
X-960000Y+9437600D01*
X-998100Y+9399500D02*
X-997969Y+9402658D01*
X-996903Y+9408976D01*
X-994672Y+9415294D01*
X-991027Y+9421612D01*
X-985452Y+9427851D01*
X-979134Y+9432447D01*
X-972816Y+9435380D01*
X-966498Y+9437042D01*
X-960180Y+9437600D01*
X-960000Y+9437600D01*
X-998100Y+9399500D02*
X-997969Y+9396342D01*
X-996903Y+9390024D01*
X-994672Y+9383706D01*
X-991027Y+9377388D01*
X-985452Y+9371149D01*
X-979134Y+9366553D01*
X-972816Y+9363620D01*
X-966498Y+9361958D01*
X-960180Y+9361400D01*
X-960000Y+9361400D01*
X-921900Y+9399500D02*
X-922031Y+9396342D01*
X-923097Y+9390024D01*
X-925328Y+9383706D01*
X-928973Y+9377388D01*
X-934548Y+9371149D01*
X-940866Y+9366553D01*
X-947184Y+9363620D01*
X-953502Y+9361958D01*
X-959820Y+9361400D01*
X-960000Y+9361400D01*
D20*
X-1629850Y+9470620D02*
X-890150Y+9470620D01*
X-890150Y+9514135D01*
X-890150Y+9709380D02*
X-1629850Y+9709380D01*
X-1629850Y+9665865D01*
X-1629850Y+9514135D02*
X-1629850Y+9470620D01*
X-890150Y+9665865D02*
X-890150Y+9709380D01*
D70*
X-1895000Y+9747480D02*
X-1895000Y+9808440D01*
X-1863250Y+9838920D01*
X-1831500Y+9838920D01*
X-1799750Y+9808440D01*
X-1799750Y+9747480D01*
X-1895000Y+9777960D02*
X-1799750Y+9777960D01*
X-1768000Y+9838920D02*
X-1768000Y+9747480D01*
X-1672750Y+9747480D01*
X-1625125Y+9838920D02*
X-1561625Y+9838920D01*
X-1593375Y+9838920D02*
X-1593375Y+9747480D01*
X-1625125Y+9747480D02*
X-1561625Y+9747480D01*
X-1514000Y+9747480D02*
X-1514000Y+9838920D01*
X-1466375Y+9793200D01*
X-1418750Y+9838920D01*
X-1418750Y+9747480D01*
X-1291750Y+9747480D02*
X-1387000Y+9747480D01*
X-1387000Y+9838920D01*
X-1291750Y+9838920D01*
X-1387000Y+9793200D02*
X-1323500Y+9793200D01*
X-1260000Y+9747480D02*
X-1260000Y+9838920D01*
X-1164750Y+9747480D01*
X-1164750Y+9838920D01*
X-1133000Y+9838920D02*
X-1037750Y+9838920D01*
X-1085375Y+9838920D02*
X-1085375Y+9747480D01*
X-1006000Y+9747480D02*
X-1006000Y+9808440D01*
X-974250Y+9838920D01*
X-942500Y+9838920D01*
X-910750Y+9808440D01*
X-910750Y+9747480D01*
X-1006000Y+9777960D02*
X-910750Y+9777960D01*
X-879000Y+9747480D02*
X-879000Y+9838920D01*
X-799625Y+9838920D01*
X-783750Y+9823680D01*
X-783750Y+9808440D01*
X-799625Y+9793200D01*
X-879000Y+9793200D01*
X-799625Y+9793200D02*
X-783750Y+9777960D01*
X-783750Y+9747480D01*
X-656750Y+9747480D02*
X-752000Y+9747480D01*
X-752000Y+9838920D01*
X-656750Y+9838920D01*
X-752000Y+9793200D02*
X-688500Y+9793200D01*
M02*
